<svg xmlns="http://www.w3.org/2000/svg" xmlns:xlink="http://www.w3.org/1999/xlink" width="138" height="176" viewBox="0 0 138 176">
    <defs>
        <filter id="prefix__a" width="272.4%" height="272.4%" x="-86.2%" y="-69%" filterUnits="objectBoundingBox">
            <feOffset dy="10" in="SourceAlpha" result="shadowOffsetOuter1"/>
            <feGaussianBlur in="shadowOffsetOuter1" result="shadowBlurOuter1" stdDeviation="15"/>
            <feColorMatrix in="shadowBlurOuter1" values="0 0 0 0 0.361456312 0 0 0 0 0.419016343 0 0 0 0 0.456210371 0 0 0 0.2 0"/>
        </filter>
        <circle id="prefix__b" cx="29" cy="29" r="29"/>
    </defs>
    <g fill="none" fill-rule="evenodd">
        <path fill="#FFF" stroke="#C1CBD1" d="M130.309.5H7.692c-2.533 0-3.459.246-4.386.742-.89.476-1.588 1.174-2.063 2.063C.746 4.233.5 5.16.5 7.692l.143 15.792c1.037.114 1.967.583 2.667 1.283.81.81 1.31 1.928 1.31 3.163 0 1.246-.51 2.373-1.352 3.185-.716.69-1.675 1.153-2.769 1.261L.5 168.308c0 2.533.246 3.459.743 4.387.475.89 1.173 1.587 2.063 2.063.927.496 1.853.742 4.386.742h122.617c2.533 0 3.458-.246 4.386-.742.89-.476 1.587-1.174 2.063-2.063.496-.928.742-1.854.742-4.387V32.356c-1.005-.145-1.901-.625-2.573-1.323-.775-.804-1.252-1.898-1.252-3.103 0-1.199.471-2.288 1.246-3.091.669-.695 1.565-1.176 2.579-1.33V7.691c0-2.533-.246-3.459-.742-4.387-.476-.89-1.174-1.587-2.063-2.063-.928-.496-1.853-.742-4.386-.742z"/>
        <path fill="#E6F0F7" d="M131 134v32H7v-32h124zm0-13v9H7v-9h124zm0-36v12H7V85h124zm0-18v12H7V67h124zM52 35v26H7V35h45zm79 0v26H86V35h45zm-59.8 6.638l5.773 5.565-.427.413L77 48l-.438.371.411.4-5.773 5.564-3.2-.132L73.387 49H61v-2h12.416L68 41.77l3.2-.132zM23 11v10H7V11h16zm83 0v10H27V11h79zm25 0v10h-21V11h21z"/>
        <g transform="translate(40 72)">
            <use fill="#000" filter="url(#prefix__a)" xlink:href="#prefix__b"/>
            <use fill="#8DA4B3" xlink:href="#prefix__b"/>
            <path fill="#FFF" d="M33.08 19l8.783 8.869h.073L44 29.972l-2.064 2.101-.015-.001L33.08 41l-5.6-.242 8.586-8.687L16 32.072V27.87l20.008-.001-8.528-8.627 5.6-.242z"/>
        </g>
    </g>
</svg>
