<svg xmlns="http://www.w3.org/2000/svg" width="24" height="24" viewBox="0 0 24 24">
    <g fill="none" fill-rule="evenodd">
        <path d="M0 0H23V23H0z"/>
        <path fill="#8DA4B3" d="M20 1c1.105 0 2 .895 2 2v17c0 1.105-.895 2-2 2H4c-1.105 0-2-.895-2-2V3c0-1.105.895-2 2-2h16zM5 16H4v4h1v-4zm2 0H6v4h1v-4zm2 0H8v4h1v-4zm2 0h-1v4h1v-4zm2 0h-1v4h1v-4zm2 0h-1v4h1v-4zm2 0h-1v4h1v-4zm2 0h-1v4h1v-4zm-4-5H5c-.552 0-1 .448-1 1s.448 1 1 1h10c.552 0 1-.448 1-1s-.448-1-1-1zm1.718-8H5.282c-.446 0-.607.046-.77.134-.163.087-.291.215-.378.378-.088.163-.134.324-.134.77v3.436c0 .446.046.607.134.77.087.163.215.291.378.378.163.088.324.134.77.134h11.436c.446 0 .607-.046.77-.134.163-.087.291-.215.378-.378.088-.163.134-.324.134-.77V4.282c0-.446-.046-.607-.134-.77-.087-.163-.215-.291-.378-.378-.163-.088-.324-.134-.77-.134z"/>
    </g>
</svg>
