<svg xmlns="http://www.w3.org/2000/svg" width="24" height="24" viewBox="0 0 24 24">
    <g fill="none" fill-rule="evenodd">
        <path d="M0 0H23V23H0z"/>
        <path stroke="#8DA4B3" stroke-width="2" d="M18.154 2H5.846c-1.054 0-1.45.074-1.84.283-.312.166-.557.411-.723.723-.209.39-.283.786-.283 1.84v13.308c0 1.054.074 1.45.283 1.84.166.312.411.557.723.723.39.209.786.283 1.84.283h12.308c1.054 0 1.45-.074 1.84-.283.312-.166.557-.411.723-.723.209-.39.283-.786.283-1.84V4.846c0-1.054-.074-1.45-.283-1.84-.166-.312-.411-.557-.723-.723-.39-.209-.786-.283-1.84-.283z"/>
        <rect width="7" height="2" x="6" y="14" fill="#8DA4B3" rx="1"/>
        <rect width="2" height="2" x="16" y="14" fill="#8DA4B3" rx="1"/>
        <rect width="2" height="2" x="16" y="10" fill="#8DA4B3" rx="1"/>
        <rect width="2" height="2" x="16" y="6" fill="#8DA4B3" rx="1"/>
        <rect width="7" height="2" x="6" y="6" fill="#8DA4B3" rx="1"/>
        <rect width="9" height="2" x="6" y="10" fill="#8DA4B3" rx="1"/>
    </g>
</svg>
