<svg xmlns="http://www.w3.org/2000/svg" width="24" height="24" viewBox="0 0 24 24">
    <g fill="none" fill-rule="evenodd">
        <path stroke="#8DA4B3" stroke-width="2" d="M20 1H4c-.552 0-1.052.224-1.414.586C2.224 1.948 2 2.448 2 3v18c0 .552.224 1.052.586 1.414.362.362.862.586 1.414.586h16c.552 0 1.052-.224 1.414-.586.362-.362.586-.862.586-1.414V3c0-.552-.224-1.052-.586-1.414C21.052 1.224 20.552 1 20 1z"/>
        <path stroke="#8DA4B3" d="M16.436 7.5H7.564c-.75 0-1.029.06-1.305.208-.238.127-.424.313-.551.551-.148.276-.208.555-.208 1.305v6.872c0 .75.06 1.029.208 1.305.127.238.313.424.551.551.276.148.555.208 1.305.208h8.872c.75 0 1.029-.06 1.305-.208.238-.127.424-.313.551-.551.148-.276.208-.555.208-1.305V9.564c0-.75-.06-1.029-.208-1.305-.127-.238-.313-.424-.551-.551-.276-.148-.555-.208-1.305-.208z"/>
        <path stroke="#8DA4B3" d="M16.436 5.5H7.564c-.75 0-1.029.06-1.305.208-.238.127-.424.313-.551.551-.148.276-.208.555-.208 1.305v6.872c0 .75.06 1.029.208 1.305.127.238.313.424.551.551.276.148.555.208 1.305.208h8.872c.75 0 1.029-.06 1.305-.208.238-.127.424-.313.551-.551.148-.276.208-.555.208-1.305V7.564c0-.75-.06-1.029-.208-1.305-.127-.238-.313-.424-.551-.551-.276-.148-.555-.208-1.305-.208z"/>
        <path fill="#8DA4B3" d="M7.564 9h8.872c.892 0 1.215.093 1.54.267.327.174.583.43.757.756.174.326.267.65.267 1.54v4.873c0 .892-.093 1.215-.267 1.54-.174.327-.43.583-.756.757-.326.174-.65.267-1.54.267H7.563c-.892 0-1.215-.093-1.54-.267-.327-.174-.583-.43-.757-.756-.174-.326-.267-.65-.267-1.54v-4.873c0-.892.093-1.215.267-1.54.174-.327.43-.583.756-.757.326-.174.65-.267 1.54-.267zM8.5 20h7c.276 0 .5.224.5.5s-.224.5-.5.5h-7c-.276 0-.5-.224-.5-.5s.224-.5.5-.5zM7 1h10c0 1.105-.895 2-2 2H9c-1.105 0-2-.895-2-2z"/>
    </g>
</svg>
