<svg xmlns="http://www.w3.org/2000/svg" width="24" height="24" viewBox="0 0 24 24">
    <g fill="none" fill-rule="evenodd">
        <path d="M0 0H23V23H0z"/>
        <path fill="#124261" d="M20 1c1.105 0 2 .895 2 2v17c0 1.105-.895 2-2 2H4c-1.105 0-2-.895-2-2V3c0-1.105.895-2 2-2l4.258.001C9.268 2.221 10.793 3 12.5 3c1.707 0 3.233-.778 4.242-1.999L20 1z"/>
        <path fill="#FFF" fill-rule="nonzero" d="M13.075 5.5l.659 1.8.746.307 1.711-.834 1.536 1.536-.79 1.755.264.702 1.799.659v2.15l-1.8.659-.307.746.834 1.711-1.536 1.536-1.711-.834-.746.308-.659 1.799h-2.15l-.659-1.8-.746-.307-1.711.834-1.536-1.536.834-1.711-.308-.746L5 13.575v-2.15l1.8-.659.307-.746-.834-1.711 1.536-1.536 1.711.834.746-.308.659-1.799h2.15zM12 9.5c-1.65 0-3 1.35-3 3s1.35 3 3 3 3-1.35 3-3-1.35-3-3-3z"/>
    </g>
</svg>
