<?xml version="1.0" encoding="UTF-8"?>
<svg width="8px" height="12px" viewBox="0 0 8 12" version="1.1" xmlns="http://www.w3.org/2000/svg" xmlns:xlink="http://www.w3.org/1999/xlink">
    <!-- Generator: sketchtool 63.1 (101010) - https://sketch.com -->
    <title>04DF1EBC-775E-481A-9B7C-CD1FF2053E8A</title>
    <desc>Created with sketchtool.</desc>
    <g id="Main-page" stroke="none" stroke-width="1" fill="none" fill-rule="evenodd">
        <g id="1.-Pass-Settings" transform="translate(-1130.000000, -1496.000000)" fill="#666666">
            <g id="Stacked-Group-2" transform="translate(775.000000, 679.000000)">
                <g id="Group-18">
                    <g id="Dropdown-fill" transform="translate(0.000000, 780.000000)">
                        <g id="Group-2" transform="translate(0.000000, 28.000000)">
                            <path d="M362.5,16.2 C362.635333,16.2 362.7525,16.2528 362.8515,16.3584 C362.9505,16.464 363,16.5889778 363,16.7333333 C363,16.8776889 362.9505,17.0026667 362.8515,17.1082667 L359.3515,20.8416 C359.2525,20.9472 359.135333,21 359,21 C358.864667,21 358.7475,20.9472 358.6485,20.8416 L355.1485,17.1082667 C355.0495,17.0026667 355,16.8776889 355,16.7333333 C355,16.5889778 355.0495,16.464 355.1485,16.3584 C355.2475,16.2528 355.364667,16.2 355.5,16.2 L362.5,16.2 Z M359,9 C359.135333,9 359.2525,9.0528 359.3515,9.1584 L362.8515,12.8917333 C362.9505,12.9973333 363,13.1223111 363,13.2666667 C363,13.4110222 362.9505,13.536 362.8515,13.6416 C362.7525,13.7472 362.635333,13.8 362.5,13.8 L355.5,13.8 C355.364667,13.8 355.2475,13.7472 355.1485,13.6416 C355.0495,13.536 355,13.4110222 355,13.2666667 C355,13.1223111 355.0495,12.9973333 355.1485,12.8917333 L358.6485,9.1584 C358.7475,9.0528 358.864667,9 359,9 Z" id="Shape"></path>
                        </g>
                    </g>
                </g>
            </g>
        </g>
    </g>
</svg>