<svg xmlns="http://www.w3.org/2000/svg" width="110" height="35" viewBox="0 0 110 35">
    <g fill="#FFF" transform="translate(.195 4.692)">
        <path d="M12.437 5.996c1.172.003 2.27.309 3.228.84l1.345-1.343c-1.323-.843-2.889-1.339-4.573-1.34-4.703.002-8.513 3.808-8.513 8.504s3.81 8.503 8.513 8.503c1.684 0 3.25-.494 4.572-1.339l-1.345-1.343c-.956.53-2.055.837-3.227.84-3.683-.008-6.663-2.983-6.67-6.661.007-3.678 2.987-6.654 6.67-6.66zm0 17.113c-5.78-.01-10.454-4.682-10.465-10.451.01-5.773 4.685-10.442 10.465-10.453 2.223.005 4.281.704 5.976 1.887l1.319-1.319c-2.043-1.507-4.56-2.41-7.295-2.411C5.637.365.129 5.866.127 12.658c.002 6.79 5.51 12.293 12.31 12.296 2.735-.002 5.253-.904 7.295-2.413l-1.32-1.32c-1.694 1.185-3.751 1.884-5.975 1.888zm-4.72-10.451c.002-2.605 2.113-4.714 4.72-4.714 2.605 0 4.716 2.108 4.717 4.714-.001 2.601-2.112 4.712-4.717 4.712-2.607 0-4.718-2.11-4.72-4.712zm1.846 0c.002 1.584 1.287 2.865 2.874 2.87 1.586-.005 2.867-1.286 2.87-2.87-.003-1.585-1.284-2.868-2.87-2.87-1.587.002-2.872 1.285-2.874 2.87z"/>
        <path d="M20.612 3.472l-1.317 1.315c2.2 1.914 3.597 4.726 3.604 7.871-.007 3.144-1.404 5.955-3.604 7.869l1.317 1.316c2.534-2.252 4.132-5.533 4.133-9.185-.001-3.655-1.599-6.935-4.133-9.186zm2.69-2.685l-1.312 1.31c2.883 2.604 4.696 6.369 4.703 10.56-.007 4.192-1.82 7.955-4.703 10.56l1.31 1.31c3.22-2.94 5.24-7.169 5.24-11.87 0-4.7-2.02-8.93-5.239-11.87zm-5.38 5.373L16.61 7.47c1.515 1.22 2.49 3.089 2.492 5.188-.002 2.096-.977 3.964-2.494 5.184l1.312 1.311c1.85-1.56 3.027-3.89 3.027-6.495 0-2.609-1.177-4.94-3.027-6.5z" opacity=".5"/>
        <circle cx="55.805" cy="15.789" r="1"/>
        <path d="M38.79 13.316c-.569.013-1.025.474-1.031 1.045v3.856h4.633v-1.055h-3.577v-.87h3.577v-1.056h-3.577v-.87h3.577v-1.052H38.79v.002zm10.824 0c-.57.013-1.027.474-1.032 1.045h-.001v3.856h4.635v-1.055h-3.578v-.87h3.578v-1.056h-3.578v-.87h3.578v-1.052h-3.602v.002zm-5.101-.002h-1.057v3.854c.007.571.464 1.033 1.032 1.046v.003h3.249v-1.055h-3.224v-3.848zm-11.852 1.053h1.574v3.85h1.056v-3.85h1.573v-1.053h-4.203v1.053zm31.976-1.234c-1.454 0-2.63 1.176-2.632 2.629.001 1.451 1.177 2.626 2.632 2.626 1.454 0 2.63-1.175 2.63-2.626 0-1.453-1.176-2.629-2.63-2.629zm0 4.23c-.884-.003-1.6-.719-1.603-1.601.003-.885.719-1.6 1.603-1.6.885 0 1.6.715 1.601 1.6-.002.882-.716 1.598-1.6 1.6zm-7.398-2.996h1.573v3.85h1.056v-3.85h1.573v-1.053H57.24v1.053zm40.415-1.053h-1.057v3.854c.007.571.464 1.033 1.032 1.046v.003h3.25v-1.055h-3.225v-3.848zm-23.792 3.88h-1.75V13.27h-1.058v3.925h-1.75V13.27h-1.056v4.979h2.857c.25-.022.394-.268.462-.398.062.141.225.393.48.393.029 0 .047.004.07.006h1.752v-.001c.57-.005 1.033-.46 1.046-1.03h.003v-3.95h-1.056v3.926zm20.346-3.878v-.002h-3.603v4.902h1.056v-1.925h2.52v1.926h1.057V14.36c-.006-.57-.462-1.032-1.03-1.045zm-.026 1.92h-2.52v-.87h2.52v.87zm8.74 1.926v-3.848h-1.056v3.854h.002c.005.571.461 1.033 1.03 1.046v.003h3.25v-1.055h-3.226zm-23.155-3.846v-.002h-3.602v4.902h1.057v-3.85h2.52v3.85h1.057v-3.855c-.005-.57-.463-1.031-1.032-1.045zm8.251 1.92h-2.626v-1.922h-1.056v4.902h1.056v-1.925h2.626v1.925h1.058v-4.902h-1.058v1.922z"/>
        <g>
            <path d="M0.36 0.669L0.36 0.277 74.024 0.277 74.024 0.669z" transform="translate(32.093 19.756)"/>
            <g>
                <g>
                    <path d="M0.984 2.8H3.074V3.8H0.984z" transform="translate(32.093 19.756) translate(64.187 1.864) translate(3.359)"/>
                    <path d="M0.321 0.325H1.321V2.806H0.321z" transform="translate(32.093 19.756) translate(64.187 1.864) translate(3.359)"/>
                    <path d="M1 2.798v.682C.624 3.48.32 3.174.32 2.798H1z" transform="translate(32.093 19.756) translate(64.187 1.864) translate(3.359)"/>
                </g>
                <path d="M0.953 2.8H3.044V3.8H0.953z" transform="translate(32.093 19.756) translate(64.187 1.864)"/>
                <path d="M0.291 0.325H1.291V2.806H0.291z" transform="translate(32.093 19.756) translate(64.187 1.864)"/>
                <path d="M.971 2.798v.682c-.375-.001-.68-.306-.68-.682h.68zM9.105 2.62c-.186.19-.447.31-.734.31-.57 0-1.03-.461-1.032-1.03C7.34 1.333 7.8.872 8.37.872c.34 0 .639.167.826.423h.747C9.7.662 9.09.21 8.371.21c-.937 0-1.692.756-1.694 1.69.002.935.757 1.69 1.694 1.69.675 0 1.254-.397 1.525-.97h-.791z" transform="translate(32.093 19.756) translate(64.187 1.864)"/>
            </g>
        </g>
        <path d="M107.734 13c.668 0 1.2.542 1.2 1.22 0 .689-.532 1.226-1.205 1.226-.668 0-1.21-.537-1.21-1.225 0-.679.542-1.22 1.21-1.22h.005zm-.005.19c-.537 0-.977.462-.977 1.03 0 .58.44 1.036.983 1.036.542.006.977-.455.977-1.03 0-.574-.435-1.035-.977-1.035h-.006zm-.228 1.74h-.217v-1.36c.114-.016.223-.032.385-.032.207 0 .342.043.424.103.081.059.124.152.124.282 0 .179-.119.287-.265.33v.011c.12.022.2.13.227.33.033.212.065.294.087.336h-.228c-.033-.042-.065-.167-.093-.347-.032-.172-.119-.238-.292-.238h-.152v.585zm0-.752h.157c.18 0 .332-.066.332-.234 0-.12-.087-.239-.332-.239-.07 0-.119.006-.157.011v.462z"/>
    </g>
</svg>
